<mxfile host="app.diagrams.net" agent="Mozilla/5.0 (Macintosh; Intel Mac OS X 10_15_7) AppleWebKit/537.36 (KHTML, like Gecko) Chrome/134.0.0.0 Safari/537.36" version="26.1.1">
  <diagram name="PÃ¡gina-1" id="5JSR0KySKQYqGAx8VQ0m">
    <mxGraphModel dx="1257" dy="426" grid="1" gridSize="10" guides="1" tooltips="1" connect="1" arrows="1" fold="1" page="1" pageScale="1" pageWidth="2339" pageHeight="3300" math="0" shadow="0">
      <root>
        <mxCell id="0" />
        <mxCell id="1" parent="0" />
        <mxCell id="KH6h-GxjvjbVvKimbUEf-2" value="us-east-1&lt;div&gt;&lt;br&gt;&lt;/div&gt;" style="points=[[0,0],[0.25,0],[0.5,0],[0.75,0],[1,0],[1,0.25],[1,0.5],[1,0.75],[1,1],[0.75,1],[0.5,1],[0.25,1],[0,1],[0,0.75],[0,0.5],[0,0.25]];outlineConnect=0;gradientColor=none;html=1;whiteSpace=wrap;fontSize=12;fontStyle=0;container=1;pointerEvents=0;collapsible=0;recursiveResize=0;shape=mxgraph.aws4.group;grIcon=mxgraph.aws4.group_region;strokeColor=#00A4A6;fillColor=none;verticalAlign=top;align=left;spacingLeft=30;fontColor=#147EBA;dashed=1;" vertex="1" parent="1">
          <mxGeometry x="210" y="110" width="1800" height="450" as="geometry" />
        </mxCell>
        <mxCell id="KH6h-GxjvjbVvKimbUEf-9" style="edgeStyle=orthogonalEdgeStyle;rounded=0;orthogonalLoop=1;jettySize=auto;html=1;flowAnimation=1;" edge="1" parent="KH6h-GxjvjbVvKimbUEf-2" source="KH6h-GxjvjbVvKimbUEf-4" target="KH6h-GxjvjbVvKimbUEf-8">
          <mxGeometry relative="1" as="geometry" />
        </mxCell>
        <mxCell id="KH6h-GxjvjbVvKimbUEf-4" value="MSK CLUSTER" style="sketch=0;outlineConnect=0;fontColor=#232F3E;gradientColor=none;fillColor=#8C4FFF;strokeColor=none;dashed=0;verticalLabelPosition=bottom;verticalAlign=top;align=center;html=1;fontSize=12;fontStyle=0;aspect=fixed;pointerEvents=1;shape=mxgraph.aws4.msk_amazon_msk_connect;" vertex="1" parent="KH6h-GxjvjbVvKimbUEf-2">
          <mxGeometry x="180" y="120" width="78" height="77" as="geometry" />
        </mxCell>
        <mxCell id="KH6h-GxjvjbVvKimbUEf-5" value="" style="shape=message;html=1;html=1;outlineConnect=0;labelPosition=center;verticalLabelPosition=bottom;align=center;verticalAlign=top;" vertex="1" parent="KH6h-GxjvjbVvKimbUEf-2">
          <mxGeometry x="300" y="130" width="30" height="20" as="geometry" />
        </mxCell>
        <mxCell id="KH6h-GxjvjbVvKimbUEf-6" value="" style="shape=message;html=1;html=1;outlineConnect=0;labelPosition=center;verticalLabelPosition=bottom;align=center;verticalAlign=top;" vertex="1" parent="KH6h-GxjvjbVvKimbUEf-2">
          <mxGeometry x="340" y="130" width="30" height="20" as="geometry" />
        </mxCell>
        <mxCell id="KH6h-GxjvjbVvKimbUEf-7" value="" style="shape=message;html=1;html=1;outlineConnect=0;labelPosition=center;verticalLabelPosition=bottom;align=center;verticalAlign=top;" vertex="1" parent="KH6h-GxjvjbVvKimbUEf-2">
          <mxGeometry x="380" y="130" width="30" height="20" as="geometry" />
        </mxCell>
        <mxCell id="KH6h-GxjvjbVvKimbUEf-12" style="edgeStyle=orthogonalEdgeStyle;rounded=0;orthogonalLoop=1;jettySize=auto;html=1;flowAnimation=1;" edge="1" parent="KH6h-GxjvjbVvKimbUEf-2" source="KH6h-GxjvjbVvKimbUEf-8" target="KH6h-GxjvjbVvKimbUEf-11">
          <mxGeometry relative="1" as="geometry" />
        </mxCell>
        <mxCell id="KH6h-GxjvjbVvKimbUEf-8" value="HpendienConsumer" style="sketch=0;outlineConnect=0;fontColor=#232F3E;gradientColor=none;fillColor=#ED7100;strokeColor=none;dashed=0;verticalLabelPosition=bottom;verticalAlign=top;align=center;html=1;fontSize=12;fontStyle=0;aspect=fixed;pointerEvents=1;shape=mxgraph.aws4.lambda_function;" vertex="1" parent="KH6h-GxjvjbVvKimbUEf-2">
          <mxGeometry x="450" y="123.5" width="70" height="70" as="geometry" />
        </mxCell>
        <mxCell id="KH6h-GxjvjbVvKimbUEf-14" style="edgeStyle=orthogonalEdgeStyle;rounded=0;orthogonalLoop=1;jettySize=auto;html=1;flowAnimation=1;entryX=0;entryY=0.5;entryDx=0;entryDy=0;" edge="1" parent="KH6h-GxjvjbVvKimbUEf-2" source="KH6h-GxjvjbVvKimbUEf-11" target="KH6h-GxjvjbVvKimbUEf-24">
          <mxGeometry relative="1" as="geometry" />
        </mxCell>
        <mxCell id="KH6h-GxjvjbVvKimbUEf-11" value="realtime-sqs" style="sketch=0;points=[[0,0,0],[0.25,0,0],[0.5,0,0],[0.75,0,0],[1,0,0],[0,1,0],[0.25,1,0],[0.5,1,0],[0.75,1,0],[1,1,0],[0,0.25,0],[0,0.5,0],[0,0.75,0],[1,0.25,0],[1,0.5,0],[1,0.75,0]];outlineConnect=0;fontColor=#232F3E;fillColor=#E7157B;strokeColor=#ffffff;dashed=0;verticalLabelPosition=bottom;verticalAlign=top;align=center;html=1;fontSize=12;fontStyle=0;aspect=fixed;shape=mxgraph.aws4.resourceIcon;resIcon=mxgraph.aws4.sqs;" vertex="1" parent="KH6h-GxjvjbVvKimbUEf-2">
          <mxGeometry x="590" y="133.5" width="50" height="50" as="geometry" />
        </mxCell>
        <mxCell id="KH6h-GxjvjbVvKimbUEf-13" value="FlipRealTime" style="sketch=0;outlineConnect=0;fontColor=#232F3E;gradientColor=none;fillColor=#ED7100;strokeColor=none;dashed=0;verticalLabelPosition=bottom;verticalAlign=top;align=center;html=1;fontSize=12;fontStyle=0;aspect=fixed;pointerEvents=1;shape=mxgraph.aws4.lambda_function;" vertex="1" parent="KH6h-GxjvjbVvKimbUEf-2">
          <mxGeometry x="860" y="123.5" width="70" height="70" as="geometry" />
        </mxCell>
        <mxCell id="KH6h-GxjvjbVvKimbUEf-48" style="edgeStyle=orthogonalEdgeStyle;rounded=0;orthogonalLoop=1;jettySize=auto;html=1;entryX=0;entryY=0.5;entryDx=0;entryDy=0;flowAnimation=1;" edge="1" parent="KH6h-GxjvjbVvKimbUEf-2" source="KH6h-GxjvjbVvKimbUEf-15" target="KH6h-GxjvjbVvKimbUEf-47">
          <mxGeometry relative="1" as="geometry" />
        </mxCell>
        <mxCell id="KH6h-GxjvjbVvKimbUEf-15" value="" style="swimlane;startSize=0;fillColor=#fa6800;fontColor=#000000;strokeColor=#C73500;" vertex="1" parent="KH6h-GxjvjbVvKimbUEf-2">
          <mxGeometry x="1290" y="33.5" width="250" height="250" as="geometry" />
        </mxCell>
        <mxCell id="KH6h-GxjvjbVvKimbUEf-18" value="AthenaServiceRequest" style="sketch=0;outlineConnect=0;fontColor=#232F3E;gradientColor=none;fillColor=#ED7100;strokeColor=none;dashed=0;verticalLabelPosition=bottom;verticalAlign=top;align=center;html=1;fontSize=12;fontStyle=0;aspect=fixed;pointerEvents=1;shape=mxgraph.aws4.lambda_function;" vertex="1" parent="KH6h-GxjvjbVvKimbUEf-15">
          <mxGeometry x="75" y="10" width="50" height="50" as="geometry" />
        </mxCell>
        <mxCell id="KH6h-GxjvjbVvKimbUEf-19" value="FhirService Request" style="sketch=0;outlineConnect=0;fontColor=#232F3E;gradientColor=none;fillColor=#ED7100;strokeColor=none;dashed=0;verticalLabelPosition=bottom;verticalAlign=top;align=center;html=1;fontSize=12;fontStyle=0;aspect=fixed;pointerEvents=1;shape=mxgraph.aws4.lambda_function;" vertex="1" parent="KH6h-GxjvjbVvKimbUEf-15">
          <mxGeometry x="75" y="130" width="50" height="50" as="geometry" />
        </mxCell>
        <mxCell id="KH6h-GxjvjbVvKimbUEf-21" style="edgeStyle=orthogonalEdgeStyle;rounded=0;orthogonalLoop=1;jettySize=auto;html=1;flowAnimation=1;" edge="1" parent="KH6h-GxjvjbVvKimbUEf-15" source="KH6h-GxjvjbVvKimbUEf-20" target="KH6h-GxjvjbVvKimbUEf-18">
          <mxGeometry relative="1" as="geometry" />
        </mxCell>
        <mxCell id="KH6h-GxjvjbVvKimbUEf-20" value="Datalake" style="sketch=0;points=[[0,0,0],[0.25,0,0],[0.5,0,0],[0.75,0,0],[1,0,0],[0,1,0],[0.25,1,0],[0.5,1,0],[0.75,1,0],[1,1,0],[0,0.25,0],[0,0.5,0],[0,0.75,0],[1,0.25,0],[1,0.5,0],[1,0.75,0]];outlineConnect=0;fontColor=#232F3E;fillColor=#8C4FFF;strokeColor=#ffffff;dashed=0;verticalLabelPosition=bottom;verticalAlign=top;align=center;html=1;fontSize=12;fontStyle=0;aspect=fixed;shape=mxgraph.aws4.resourceIcon;resIcon=mxgraph.aws4.athena;" vertex="1" parent="KH6h-GxjvjbVvKimbUEf-15">
          <mxGeometry x="190" y="10" width="50" height="50" as="geometry" />
        </mxCell>
        <mxCell id="KH6h-GxjvjbVvKimbUEf-23" style="edgeStyle=orthogonalEdgeStyle;rounded=0;orthogonalLoop=1;jettySize=auto;html=1;flowAnimation=1;" edge="1" parent="KH6h-GxjvjbVvKimbUEf-15" source="KH6h-GxjvjbVvKimbUEf-22" target="KH6h-GxjvjbVvKimbUEf-19">
          <mxGeometry relative="1" as="geometry" />
        </mxCell>
        <mxCell id="KH6h-GxjvjbVvKimbUEf-22" value="FHIR API" style="image;aspect=fixed;html=1;points=[];align=center;fontSize=12;image=img/lib/azure2/integration/API_Management_Services.svg;" vertex="1" parent="KH6h-GxjvjbVvKimbUEf-15">
          <mxGeometry x="190" y="135" width="43.33" height="40" as="geometry" />
        </mxCell>
        <mxCell id="KH6h-GxjvjbVvKimbUEf-16" style="edgeStyle=orthogonalEdgeStyle;rounded=0;orthogonalLoop=1;jettySize=auto;html=1;entryX=0;entryY=0.5;entryDx=0;entryDy=0;entryPerimeter=0;flowAnimation=1;" edge="1" parent="KH6h-GxjvjbVvKimbUEf-2" source="KH6h-GxjvjbVvKimbUEf-13" target="KH6h-GxjvjbVvKimbUEf-38">
          <mxGeometry relative="1" as="geometry" />
        </mxCell>
        <mxCell id="KH6h-GxjvjbVvKimbUEf-17" value="Lambda Invoke" style="text;html=1;align=center;verticalAlign=middle;resizable=0;points=[];autosize=1;strokeColor=#C73500;fillColor=#fa6800;fontColor=#000000;" vertex="1" parent="KH6h-GxjvjbVvKimbUEf-2">
          <mxGeometry x="1360" y="10" width="110" height="30" as="geometry" />
        </mxCell>
        <mxCell id="KH6h-GxjvjbVvKimbUEf-27" style="edgeStyle=orthogonalEdgeStyle;rounded=0;orthogonalLoop=1;jettySize=auto;html=1;flowAnimation=1;" edge="1" parent="KH6h-GxjvjbVvKimbUEf-2" source="KH6h-GxjvjbVvKimbUEf-24" target="KH6h-GxjvjbVvKimbUEf-13">
          <mxGeometry relative="1" as="geometry" />
        </mxCell>
        <mxCell id="KH6h-GxjvjbVvKimbUEf-28" value="No" style="edgeLabel;html=1;align=center;verticalAlign=middle;resizable=0;points=[];" vertex="1" connectable="0" parent="KH6h-GxjvjbVvKimbUEf-27">
          <mxGeometry x="-0.1247" y="-1" relative="1" as="geometry">
            <mxPoint as="offset" />
          </mxGeometry>
        </mxCell>
        <mxCell id="KH6h-GxjvjbVvKimbUEf-33" value="" style="edgeStyle=orthogonalEdgeStyle;rounded=0;orthogonalLoop=1;jettySize=auto;html=1;" edge="1" parent="KH6h-GxjvjbVvKimbUEf-2" source="KH6h-GxjvjbVvKimbUEf-24">
          <mxGeometry relative="1" as="geometry">
            <mxPoint x="715" y="266.25" as="targetPoint" />
          </mxGeometry>
        </mxCell>
        <mxCell id="KH6h-GxjvjbVvKimbUEf-43" value="Si" style="edgeLabel;html=1;align=center;verticalAlign=middle;resizable=0;points=[];" vertex="1" connectable="0" parent="KH6h-GxjvjbVvKimbUEf-33">
          <mxGeometry x="-0.1437" y="1" relative="1" as="geometry">
            <mxPoint as="offset" />
          </mxGeometry>
        </mxCell>
        <mxCell id="KH6h-GxjvjbVvKimbUEf-24" value="&lt;h6&gt;Deduplication?&lt;/h6&gt;&lt;p&gt;&lt;/p&gt;" style="rhombus;whiteSpace=wrap;html=1;strokeColor=light-dark(#000000,#FF8000);" vertex="1" parent="KH6h-GxjvjbVvKimbUEf-2">
          <mxGeometry x="680" y="123.5" width="70" height="68.5" as="geometry" />
        </mxCell>
        <mxCell id="KH6h-GxjvjbVvKimbUEf-34" value="skip" style="ellipse;html=1;shape=endState;fillColor=light-dark(#FFFFFF,#FF3333);strokeColor=#ff0000;fillStyle=solid;" vertex="1" parent="KH6h-GxjvjbVvKimbUEf-2">
          <mxGeometry x="700" y="270" width="30" height="30" as="geometry" />
        </mxCell>
        <mxCell id="KH6h-GxjvjbVvKimbUEf-35" value="5m" style="text;html=1;align=center;verticalAlign=middle;resizable=0;points=[];autosize=1;strokeColor=none;fillColor=none;" vertex="1" parent="KH6h-GxjvjbVvKimbUEf-2">
          <mxGeometry x="695" y="93.5" width="40" height="30" as="geometry" />
        </mxCell>
        <mxCell id="KH6h-GxjvjbVvKimbUEf-42" style="edgeStyle=orthogonalEdgeStyle;rounded=0;orthogonalLoop=1;jettySize=auto;html=1;entryX=0.5;entryY=0;entryDx=0;entryDy=0;" edge="1" parent="KH6h-GxjvjbVvKimbUEf-2" source="KH6h-GxjvjbVvKimbUEf-37" target="KH6h-GxjvjbVvKimbUEf-41">
          <mxGeometry relative="1" as="geometry" />
        </mxCell>
        <mxCell id="KH6h-GxjvjbVvKimbUEf-44" value="Si" style="edgeLabel;html=1;align=center;verticalAlign=middle;resizable=0;points=[];" vertex="1" connectable="0" parent="KH6h-GxjvjbVvKimbUEf-42">
          <mxGeometry x="-0.4153" y="2" relative="1" as="geometry">
            <mxPoint as="offset" />
          </mxGeometry>
        </mxCell>
        <mxCell id="KH6h-GxjvjbVvKimbUEf-37" value="&lt;h6&gt;Existe?&lt;/h6&gt;&lt;p&gt;&lt;/p&gt;" style="rhombus;whiteSpace=wrap;html=1;strokeColor=light-dark(#000000,#FF8000);" vertex="1" parent="KH6h-GxjvjbVvKimbUEf-2">
          <mxGeometry x="1160" y="123.5" width="70" height="68.5" as="geometry" />
        </mxCell>
        <mxCell id="KH6h-GxjvjbVvKimbUEf-40" style="edgeStyle=orthogonalEdgeStyle;rounded=0;orthogonalLoop=1;jettySize=auto;html=1;entryX=0;entryY=0.5;entryDx=0;entryDy=0;flowAnimation=1;" edge="1" parent="KH6h-GxjvjbVvKimbUEf-2" source="KH6h-GxjvjbVvKimbUEf-38" target="KH6h-GxjvjbVvKimbUEf-37">
          <mxGeometry relative="1" as="geometry" />
        </mxCell>
        <mxCell id="KH6h-GxjvjbVvKimbUEf-38" value="&lt;span style=&quot;text-align: left; text-wrap-mode: wrap;&quot;&gt;events-deduplication&lt;/span&gt;" style="outlineConnect=0;dashed=0;verticalLabelPosition=bottom;verticalAlign=top;align=center;html=1;shape=mxgraph.aws3.dynamo_db;fillColor=#2E73B8;gradientColor=none;" vertex="1" parent="KH6h-GxjvjbVvKimbUEf-2">
          <mxGeometry x="1010" y="118" width="72" height="81" as="geometry" />
        </mxCell>
        <mxCell id="KH6h-GxjvjbVvKimbUEf-41" value="skip" style="ellipse;html=1;shape=endState;fillColor=light-dark(#FFFFFF,#FF3333);strokeColor=#ff0000;fillStyle=solid;" vertex="1" parent="KH6h-GxjvjbVvKimbUEf-2">
          <mxGeometry x="1180" y="260" width="30" height="30" as="geometry" />
        </mxCell>
        <mxCell id="KH6h-GxjvjbVvKimbUEf-45" style="edgeStyle=orthogonalEdgeStyle;rounded=0;orthogonalLoop=1;jettySize=auto;html=1;entryX=0;entryY=0.5;entryDx=0;entryDy=0;flowAnimation=1;" edge="1" parent="KH6h-GxjvjbVvKimbUEf-2" source="KH6h-GxjvjbVvKimbUEf-37" target="KH6h-GxjvjbVvKimbUEf-15">
          <mxGeometry relative="1" as="geometry" />
        </mxCell>
        <mxCell id="KH6h-GxjvjbVvKimbUEf-46" value="No" style="edgeLabel;html=1;align=center;verticalAlign=middle;resizable=0;points=[];" vertex="1" connectable="0" parent="KH6h-GxjvjbVvKimbUEf-45">
          <mxGeometry x="-0.172" y="-1" relative="1" as="geometry">
            <mxPoint x="1" as="offset" />
          </mxGeometry>
        </mxCell>
        <mxCell id="KH6h-GxjvjbVvKimbUEf-50" style="edgeStyle=orthogonalEdgeStyle;rounded=0;orthogonalLoop=1;jettySize=auto;html=1;entryX=0.5;entryY=0;entryDx=0;entryDy=0;" edge="1" parent="KH6h-GxjvjbVvKimbUEf-2" source="KH6h-GxjvjbVvKimbUEf-47" target="KH6h-GxjvjbVvKimbUEf-49">
          <mxGeometry relative="1" as="geometry" />
        </mxCell>
        <mxCell id="KH6h-GxjvjbVvKimbUEf-51" value="Si" style="edgeLabel;html=1;align=center;verticalAlign=middle;resizable=0;points=[];" vertex="1" connectable="0" parent="KH6h-GxjvjbVvKimbUEf-50">
          <mxGeometry x="-0.0965" y="1" relative="1" as="geometry">
            <mxPoint as="offset" />
          </mxGeometry>
        </mxCell>
        <mxCell id="KH6h-GxjvjbVvKimbUEf-53" style="edgeStyle=orthogonalEdgeStyle;rounded=0;orthogonalLoop=1;jettySize=auto;html=1;entryX=0;entryY=0.5;entryDx=0;entryDy=0;flowAnimation=1;" edge="1" parent="KH6h-GxjvjbVvKimbUEf-2" source="KH6h-GxjvjbVvKimbUEf-47" target="KH6h-GxjvjbVvKimbUEf-52">
          <mxGeometry relative="1" as="geometry" />
        </mxCell>
        <mxCell id="KH6h-GxjvjbVvKimbUEf-54" value="No" style="edgeLabel;html=1;align=center;verticalAlign=middle;resizable=0;points=[];" vertex="1" connectable="0" parent="KH6h-GxjvjbVvKimbUEf-53">
          <mxGeometry x="-0.2712" y="2" relative="1" as="geometry">
            <mxPoint as="offset" />
          </mxGeometry>
        </mxCell>
        <mxCell id="KH6h-GxjvjbVvKimbUEf-47" value="&lt;h6&gt;+ 3500?&lt;/h6&gt;&lt;p&gt;&lt;/p&gt;" style="rhombus;whiteSpace=wrap;html=1;strokeColor=light-dark(#000000,#FF8000);" vertex="1" parent="KH6h-GxjvjbVvKimbUEf-2">
          <mxGeometry x="1630" y="124.25" width="70" height="68.5" as="geometry" />
        </mxCell>
        <mxCell id="KH6h-GxjvjbVvKimbUEf-49" value="" style="shape=image;verticalLabelPosition=bottom;labelBackgroundColor=default;verticalAlign=top;aspect=fixed;imageAspect=0;image=https://i.pcmag.com/imagery/reviews/042JMWlm1P2o86rIcHIUf82-11.fit_scale.size_400x225.v1569479266.jpg;" vertex="1" parent="KH6h-GxjvjbVvKimbUEf-2">
          <mxGeometry x="1615" y="233.75" width="100" height="56.25" as="geometry" />
        </mxCell>
        <mxCell id="KH6h-GxjvjbVvKimbUEf-52" value="skip" style="ellipse;html=1;shape=endState;fillColor=light-dark(#FFFFFF,#FF3333);strokeColor=#ff0000;fillStyle=solid;" vertex="1" parent="KH6h-GxjvjbVvKimbUEf-2">
          <mxGeometry x="1750" y="142.75" width="30" height="30" as="geometry" />
        </mxCell>
        <mxCell id="KH6h-GxjvjbVvKimbUEf-55" value="Contact" style="html=1;verticalLabelPosition=bottom;align=center;labelBackgroundColor=#ffffff;verticalAlign=top;strokeWidth=2;strokeColor=light-dark(#0080F0,#FF8000);shadow=0;dashed=0;shape=mxgraph.ios7.icons.user;" vertex="1" parent="KH6h-GxjvjbVvKimbUEf-2">
          <mxGeometry x="1615" y="300" width="30" height="30" as="geometry" />
        </mxCell>
        <mxCell id="KH6h-GxjvjbVvKimbUEf-56" value="Deal" style="shape=image;editableCssRules=.*;verticalLabelPosition=bottom;labelBackgroundColor=default;verticalAlign=top;aspect=fixed;imageAspect=0;image=data:image/svg+xml,PHN2ZyB4bWxucz0iaHR0cDovL3d3dy53My5vcmcvMjAwMC9zdmciIHZpZXdCb3g9Ii0wLjUgLTAuNSAyOCAyOCIgaGVpZ2h0PSIyOCIgd2lkdGg9IjI4Ij4mI3hhOwkgIDxzdHlsZSB0eXBlPSJ0ZXh0L2NzcyI+LnN0MCB7IHN0b3AtY29sb3I6IHJnYigzNSwgMTQ5LCAyNTUpOyB9IC5zdDEgeyBzdG9wLWNvbG9yOiByZ2IoMCwgODcsIDIxMCk7IH0gPC9zdHlsZT4mI3hhOwk8ZGVmcz4mI3hhOwkJPGxpbmVhckdyYWRpZW50IGdyYWRpZW50VW5pdHM9InVzZXJTcGFjZU9uVXNlIiB5Mj0iMjUuMzA5IiB4Mj0iMjMuNDU0IiB5MT0iMy40NzQiIHgxPSIyLjAzOSIgaWQ9IkEiPiYjeGE7CQkJPHN0b3AgY2xhc3M9InN0MCIvPiYjeGE7CQkJPHN0b3AgY2xhc3M9InN0MSIgb2Zmc2V0PSIxIi8+JiN4YTsJCTwvbGluZWFyR3JhZGllbnQ+JiN4YTsJPC9kZWZzPiYjeGE7CTxwYXRoIGZpbGw9InVybCgjQSkiIGQ9Ik0yMS43NDcgMTMuMmExMS4zNSAxMS4zNSAwIDAgMSA0LjE2NCAzLjk0NWMxLjA1OSAxLjY4IDEuNTg5IDMuNTc5IDEuNTg5IDUuNjk5djMuMTIzYzAgMS4wMjItLjUzIDEuNTM0LTEuNTg5IDEuNTM0SDcuMjgyYy0uNDc1IDAtLjg1OS0uMTQ2LTEuMTUyLS40MzgtLjI5MS0uMjU2LS40MzgtLjYyMS0uNDM4LTEuMDk2di0xLjU4OUgxLjAzNGMtMS4wMjIgMC0xLjUzNC0uNTEyLTEuNTM0LTEuNTM0VjE5LjcyYTcuMjcgNy4yNyAwIDAgMSAxLjI2MS00LjE2NmMuODAzLTEuMjA5IDEuOTIxLTIuMTc1IDMuMjMzLTIuNzkzLS40NjQtLjUyOC0uODE4LTEuMTQzLTEuMDQyLTEuODA5YTYuODggNi44OCAwIDAgMS0uMzMtMi4wODFjMC0uODc3LjE2NS0xLjY4LjQ5NC0yLjQxMWE2LjE3IDYuMTcgMCAwIDEgMS4zMTUtMS45NzNjLjU2OC0uNTczIDEuMjM3LTEuMDM3IDEuOTczLTEuMzY5YTYuMDYgNi4wNiAwIDAgMSAyLjQxMS0uNDkzYy4yNTYgMCAuNDkzLjAxOC43MTIuMDUzYTIuNjUgMi42NSAwIDAgMSAuNzEyLjExQTcuNDEgNy40MSAwIDAgMSAxMi45MjYuMzc3YzEuMTM0LS41ODUgMi4zOTQtLjg4NiAzLjY3LS44NzcgMS4wOTYgMCAyLjEyLjIwMiAzLjA2OC42MDNzMS43NzEuOTY4IDIuNDY1IDEuNjk5Yy42OTQuNjk0IDEuMjQzIDEuNTE1IDEuNjQ1IDIuNDY1LjQwMy45MTIuNjAzIDEuOTE4LjYwMyAzLjAxNC4wMDMgMS4xNTItLjIzOSAyLjI5MS0uNzEyIDMuMzQyLS40MjIgMS4wMDEtMS4wOCAxLjg4NS0xLjkxOCAyLjU3NnpNMTYuNTk0IDIuNjIzYy0xLjMxNSAwLTIuNDI4LjQ1Ni0zLjM0MiAxLjM3MS0uODc3Ljg3Ny0xLjMxNSAxLjk3My0xLjMxNSAzLjI4OHMuNDM4IDIuNDI4IDEuMzE1IDMuMzQyYy45MTIuODc3IDIuMDI3IDEuMzE1IDMuMzQyIDEuMzE1czIuNDExLS40MzggMy4yODgtMS4zMTVhNC41NCA0LjU0IDAgMCAwIDEuMzY5LTMuMzQyYzAtMS4zMTUtLjQ1Ni0yLjQxMS0xLjM2OC0zLjI4OC0uODc3LS45MTQtMS45NzQtMS4zNzEtMy4yODktMS4zNzF6TTguNjUxIDUuNzQ5Yy0uODQyIDAtMS41NzEuMzEtMi4xOTIuOTMxLS41ODQuNTg0LS44NzcgMS4zMTUtLjg3NyAyLjE5MmEzLjA5IDMuMDkgMCAwIDAgLjg3NyAyLjE5MiAzLjA5IDMuMDkgMCAwIDAgMi4xOTIuODc3aDEuNzUzYTcuOTggNy45OCAwIDAgMS0xLjE1LTIuMTM3IDcuNjMgNy42MyAwIDAgMS0uNDM4LTIuNTJ2LS43NzFhNC4wMSA0LjAxIDAgMCAxIC4xNjMtLjc2NmgtLjMyOHpNMi42MjMgMjEuMzExaDMuMjMzYy4zMy0yLjUyMSAxLjM2OS00LjYwMyAzLjEyMy02LjI0N0g3LjI4M2MtMS4zMTUgMC0yLjQzLjQ1Ni0zLjM0NCAxLjM2OS0uODc3Ljg3Ny0xLjMxNSAxLjk3NC0xLjMxNSAzLjI4OXptMjEuNzU0IDEuNTM0YTcuNCA3LjQgMCAwIDAtLjYwMy0zLjAxNGMtLjM4My0uOTIxLS45NDItMS43NTgtMS42NDUtMi40NjVhNy4yNiA3LjI2IDAgMCAwLTIuNDY1LTEuNjk5Yy0uOTcxLS40MDYtMi4wMTUtLjYxMS0zLjA2OC0uNjAzLTEuMDk2IDAtMi4xMTguMjAyLTMuMDY4LjYwMy0uOTEyLjQwMy0xLjczNi45NjgtMi40NjUgMS42OTlhNy42NyA3LjY3IDAgMCAwLTEuNjQ1IDIuNDY1IDcuNCA3LjQgMCAwIDAtLjYwMSAzLjAxNHYxLjUzNGgxNS41NjF6Ii8+JiN4YTs8L3N2Zz4=;" vertex="1" parent="KH6h-GxjvjbVvKimbUEf-2">
          <mxGeometry x="1685" y="300" width="30" height="30" as="geometry" />
        </mxCell>
        <mxCell id="KH6h-GxjvjbVvKimbUEf-36" value="Events" style="text;html=1;align=center;verticalAlign=middle;resizable=0;points=[];autosize=1;strokeColor=none;fillColor=none;" vertex="1" parent="1">
          <mxGeometry x="530" y="268" width="60" height="30" as="geometry" />
        </mxCell>
      </root>
    </mxGraphModel>
  </diagram>
</mxfile>
